<?xml version="1.0" standalone="no"?>
<!DOCTYPE svg PUBLIC "-//W3C//DTD SVG 1.1//EN" "http://www.w3.org/Graphics/SVG/1.1/DTD/svg11.dtd" >
<svg>
<metadata>
Created by FontForge 20090622 at Mon Dec 14 08:27:24 2015
 By deploy user
Copyright (c) 2009 by Satori Type. All rights reserved.
</metadata>
<defs>
<font id="Tenge" horiz-adv-x="1024" >
  <font-face 
    font-family="Tenge"
    font-weight="400"
    font-stretch="normal"
    units-per-em="2048"
    panose-1="0 0 0 0 0 0 0 0 0 0"
    ascent="1536"
    descent="-512"
    x-height="1489"
    cap-height="1489"
    bbox="68 -1 1716 1489"
    underline-thickness="307"
    underline-position="-291"
    unicode-range="U+000D-U+25FC"
  />
<missing-glyph horiz-adv-x="748" 
d="M68 0v1365h544v-1365h-544zM136 68h408v1229h-408v-1229z" />
    <glyph glyph-name=".notdef" horiz-adv-x="748" 
d="M68 0v1365h544v-1365h-544zM136 68h408v1229h-408v-1229z" />
    <glyph glyph-name="glyph1" horiz-adv-x="2048" 
 />
    <glyph glyph-name="glyph1" horiz-adv-x="2048" 
 />
    <glyph glyph-name="uni000D" unicode="&#xd;" horiz-adv-x="2048" 
 />
    <glyph glyph-name="space" unicode=" " 
 />
    <glyph glyph-name="A" unicode="A" horiz-adv-x="1456" 
d="M123 979l35 168h1153l-35 -168h-477l-205 -979h-197l203 979h-477zM188 1292l35 174h1153l-35 -174h-1153z" />
    <glyph glyph-name="B" unicode="B" horiz-adv-x="1560" 
d="M147 815l54 248h1165l-53 -248h-434l-172 -815h-295l172 815h-437zM233 1219l54 247h1165l-53 -247h-1166z" />
    <glyph glyph-name="C" unicode="C" horiz-adv-x="1841" 
d="M147 559l76 363h1376l-75 -363h-461l-119 -559h-452l118 559h-463zM262 1104l78 362h1376l-78 -362h-1376z" />
    <glyph glyph-name="D" unicode="D" horiz-adv-x="1234" 
d="M123 985l29 174h952l-29 -174h-397l-168 -985h-160l168 985h-395zM174 1292l31 174h952l-31 -174h-952z" />
    <glyph glyph-name="E" unicode="E" horiz-adv-x="1323" 
d="M147 813l43 248h955l-43 -248h-357l-137 -813h-241l137 813h-357zM217 1219l43 247h954l-43 -247h-954z" />
    <glyph glyph-name="F" unicode="F" horiz-adv-x="1599" 
d="M129 803l88 385h1237l-88 -385h-70q0 80 -43 178q-47 109 -106 121q-55 8 -162 8h-59l-209 -903q-9 -35 0 -62q9 -28 39 -43q14 -6 71 -18q56 -12 88 -12l-16 -72h-670l17 72q8 1 35.5 3.5l48.5 4.5q64 7 84 14q36 12 56.5 36.5t31.5 66.5l211 913h-58q-92 0 -168 -8
q-55 -7 -161 -121q-70 -75 -125 -178h-72zM240 1282l30 137h1237l-30 -137h-1237z" />
    <glyph glyph-name="G" unicode="G" horiz-adv-x="1769" 
d="M135 739l94 406h1377l-95 -406h-77q-9 89 -56 195q-43 104 -100 113q-13 1 -47 3t-63 3.5t-48 1.5h-47l-192 -838q-10 -36 -2 -63t41 -43q32 -16 145 -33l-16 -78h-791l16 78q75 7 84 8q59 7 76 14q41 16 60.5 42t27.5 65l195 848h-47q-25 0 -88 -4t-74 -4
q-58 -9 -152 -113q-86 -98 -143 -195h-78zM256 1262l35 157h1376l-35 -157h-1376z" />
    <glyph glyph-name="J" unicode="J" horiz-adv-x="1245" 
d="M143 727l76 350q4 25 29 25h831q25 0 21 -25l-76 -350q-4 -25 -27 -25h-94q-8 0 -11.5 1t-6 6.5t-0.5 17.5l49 231h-217l-189 -825h146q11 0 16 -3.5t5 -9t-1 -11.5l-18 -84q-4 -25 -29 -25h-459q-24 0 -20 25l18 84q4 24 29 24h145l189 825h-217l-49 -231
q-4 -25 -29 -25h-90q-7 0 -12 1.5t-8 6.5q-2 4 -2 9q0 4 1 8zM250 1223l20 94q4 24 29 24h831q22 0 22 -18q0 -3 -1 -6l-21 -94q-3 -9 -4.5 -12.5t-8 -8t-17.5 -4.5h-832q-20 0 -20 15q0 4 2 10z" />
    <glyph glyph-name="K" unicode="K" horiz-adv-x="1417" 
d="M168 556q-1 4 -1 7q0 8 5 17l82 383q0 2 1.5 8.5t2 8.5t3 6.5t6.5 6t11 3t17 1.5h887l6 1q6 0 7.5 -0.5t7 -2t6 -5.5t3 -10.5t-1.5 -16.5l-82 -383q-2 -8 -4.5 -14.5t-6 -10.5t-6.5 -6t-7.5 -3t-7 -1h-6.5h-5h-120q-27 0 -30.5 10.5t3.5 24.5l41 196h-150l-135 -579h135
q2 0 7.5 0.5t8 0l7.5 -1.5t7 -4t4 -7.5t1.5 -12t-2.5 -18.5l-22 -111q-2 -12 -6.5 -20.5t-7.5 -13t-10 -7.5q-8 -2 -10 -2q-1 0 -2 -1q-3 0 -8 1h-8h-546h-8h-4h-4t-7.5 1t-7 3.5t-5 7.5t-1.5 12.5t2 18.5l22 111q3 12 7.5 20.5t8 13t10.5 7t9.5 3t10.5 0.5l8 -1h135
l135 579h-150l-41 -196q-2 -8 -4.5 -14.5t-6 -10.5t-6.5 -6t-7.5 -3t-7 -1h-6.5h-5h-120q-27 1 -31 11zM297 1163l29 135q2 12 6.5 20.5t7.5 13t10 6.5q6 4 8 4h4h6q8 0 9 -1h870q1 1 7 1h5h3t8 -1.5t8 -4.5q0 -2 4 -7q2 -3 3 -7q0 -2 -1 -6q-2 -8 -2 -18l-29 -135
q-3 -12 -7.5 -20.5t-8 -13t-9.5 -7.5q-8 -2 -10 -2h-4h-6h-8h-870h-8h-4h-4t-7 1t-7 4t-4 7t-2 10q0 7 3 21z" />
    <glyph glyph-name="L" unicode="L" horiz-adv-x="1126" 
d="M125 969l20 94q4 24 31 24h807q9 0 14 -2.5t5.5 -6.5t0 -7.5t-2.5 -8.5l-3 -5l-24 -90q-11 -23 -37 -23h-318l-208 -919q-4 -25 -29 -25h-119q-24 0 -20 25l209 919h-306q-21 0 -21 18q0 3 1 7zM180 1223l21 94q1 8 3 12t8 8t17 4h807q22 0 22 -12q0 -7 -7 -18l-23 -90
q-15 -23 -39 -23h-790q-21 0 -21 15q0 4 2 10z" />
    <glyph glyph-name="M" unicode="M" horiz-adv-x="1327" 
d="M157 725q0 3 1 7v5l41 185q0 5 2.5 11.5t11.5 12.5t23 6h870q24 0 24 -34q0 -19 -8 -50l-39 -129q-8 -32 -51 -32h-299l-153 -666q-9 -41 -50 -41h-196q-35 0 -35 28q0 6 2 13l154 666h-273q-9 0 -14 2q-6 3 -8 7q-3 6 -3 9zM242 1126l39 185q7 30 36 30h871q27 0 27 -34
q0 -19 -9 -50l-41 -129q-10 -32 -49 -32h-850q-26 0 -26 19q0 5 2 11z" />
    <glyph glyph-name="N" unicode="N" horiz-adv-x="1566" 
d="M117 985l39 176h1261l-39 -176h-532l-228 -985h-196l227 985h-532zM190 1313l41 176h1262l-41 -176h-1262z" />
    <glyph glyph-name="O" unicode="O" horiz-adv-x="1744" 
d="M145 731l66 289h1315l-66 -289h-465l-168 -731h-385l168 731h-465zM254 1200l65 289h1315l-65 -289h-1315z" />
    <glyph glyph-name="P" unicode="P" horiz-adv-x="1394" 
d="M123 0l10 37h47q86 0 137 51q29 34 64 148l250 851h-121q-98 0 -139 -14q-63 -21 -114.5 -76t-82.5 -143h-39l109 317h1026l-78 -317h-39q9 52 9 86q0 20 -3 33q-14 60 -57.5 87t-128.5 27h-150l-250 -851q-24 -82 -24 -124q0 -21 6 -32q27 -43 104 -43h48l-11 -37h-573z
M270 1264l27 92h1026l-27 -92h-1026z" />
    <glyph glyph-name="Q" unicode="Q" horiz-adv-x="1536" 
d="M127 702l106 367h1137l-106 -367h-37q1 25 1 48q0 87 -18 135q-19 51 -82 88q-34 18 -129 18h-59l-221 -760q-31 -110 -29 -131q5 -27 35 -45t84 -18h45l-10 -37h-709l10 37h45q60 0 101 20q32 16 55 49q17 24 47 125l221 760h-55q-140 0 -217 -57q-112 -83 -176 -232
h-39zM279 1223l38 133h1137l-39 -133h-1136z" />
    <glyph glyph-name="a" unicode="a" horiz-adv-x="1376" 
d="M106 973v174h1164v-174h-486v-973h-194v973h-484zM106 1292v174h1164v-174h-1164z" />
    <glyph glyph-name="b" unicode="b" horiz-adv-x="1441" 
d="M137 815v248h1166v-248h-435v-815h-295v815h-436zM137 1219v247h1166v-247h-1166z" />
    <glyph glyph-name="c" unicode="c" horiz-adv-x="1681" 
d="M152 559v363h1376v-363h-461v-559h-453v559h-462zM152 1104v362h1376v-362h-1376z" />
    <glyph glyph-name="d" unicode="d" horiz-adv-x="1161" 
d="M104 985v174h953v-174h-398v-985h-159v985h-396zM104 1292v174h953v-174h-953z" />
    <glyph glyph-name="e" unicode="e" horiz-adv-x="1230" 
d="M137 813v248h955v-248h-357v-813h-241v813h-357zM137 1219v247h955v-247h-955z" />
    <glyph glyph-name="f" unicode="f" horiz-adv-x="1476" 
d="M119 803v385h1237v-385h-70q-17 80 -84 178q-71 109 -135 121q-55 8 -164 8h-59v-903q0 -37 14 -62q16 -29 49 -43q19 -6 76 -18q59 -12 90 -12v-72h-670v72q8 1 35.5 3.5l48.5 4.5q62 6 80 14q64 24 64 103v913h-58q-89 0 -165 -8q-55 -8 -134 -121q-64 -92 -84 -178
h-71zM119 1282v137h1237v-137h-1237z" />
    <glyph glyph-name="g" unicode="g" horiz-adv-x="1636" 
d="M129 739v406h1376v-406h-78q-32 93 -100 195q-67 104 -125 113q-3 0 -68.5 4t-91.5 4h-47v-838q0 -39 14 -64.5t50 -41.5q37 -17 153 -33v-78h-790v78q64 7 80 8q55 6 73 14q36 16 50 41.5t14 65.5v848h-47q-26 0 -91.5 -4t-68.5 -4q-57 -9 -127 -113q-67 -105 -98 -195
h-78zM129 1262v157h1376v-157h-1376z" />
    <glyph glyph-name="h" unicode="h" horiz-adv-x="1400" 
d="M102 999v177h1196v-177h-499v-999h-197v999h-500zM102 1313v176h1196v-176h-1196z" />
    <glyph glyph-name="i" unicode="i" horiz-adv-x="1538" 
d="M141 737v285h1254v-285h-441v-737h-372v737h-441zM141 1204v285h1254v-285h-1254z" />
    <glyph glyph-name="j" unicode="j" horiz-adv-x="1136" 
d="M127 727v350q0 25 25 25h831q25 0 25 -25v-350q0 -12 -4 -17.5t-8 -6.5t-11 -1h-94q-8 0 -12 1t-7.5 6.5t-3.5 17.5v231h-217v-825h146q11 0 16.5 -4t6.5 -8t1 -12v-84q0 -25 -24 -25h-459q-25 0 -25 25v84q0 11 4.5 17.5t20.5 6.5h145v825h-217v-231q0 -25 -24 -25h-90
q-25 0 -25 25zM127 1223v94q0 11 4.5 17.5t20.5 6.5h831q11 0 16.5 -4t7 -8.5t1.5 -11.5v-94q0 -25 -25 -25h-831q-25 0 -25 25z" />
    <glyph glyph-name="k" unicode="k" horiz-adv-x="1290" 
d="M168 562.5v9v8.5v383v6.5v6.5t0.5 5.5t1.5 5.5t3.5 4t6.5 3t9.5 2t13.5 1h887l6 1q5 0 7.5 -0.5t7 -2t7 -5t4.5 -10.5t2 -17v-383q0 -8 -1 -14.5t-4 -10.5t-5 -6t-6.5 -3t-6.5 -1h-6h-5h-121q-10 0 -17 1.5t-10.5 3t-5.5 6.5t-2 6.5v9v8.5v196h-150v-579h136q1 0 8.5 0.5
t10 0t8.5 -3t8.5 -7t5 -13t2.5 -20.5v-111q0 -12 -2.5 -20.5t-5 -13t-8.5 -7.5q-7 -2 -9 -2h-4h-6h-8h-547h-9h-6h-4t-8 2.5t-8.5 7t-5 13t-2.5 20.5v111q0 12 2.5 20.5t5 13t8.5 7t8.5 3t10 0t8.5 -0.5h135v579h-150v-196q0 -8 -1 -14.5t-4 -10.5t-5 -6t-6.5 -3t-6.5 -1h-6
h-5h-121q-10 0 -17 1.5t-10.5 3t-5.5 6.5t-2 6.5zM168 1163v135q0 12 2.5 20.5t5 13t8.5 6.5q6 4 8 4h4h6q8 0 9 -1h870q1 1 9 1h6h4t8 -3t8.5 -7.5t5 -13t2.5 -20.5v-135q0 -12 -2.5 -20.5t-5 -13t-8.5 -7t-8 -2.5h-4h-6h-9h-870h-9h-6h-4t-8 2.5t-8.5 7t-5 13t-2.5 20.5z
" />
    <glyph glyph-name="l" unicode="l" horiz-adv-x="1046" 
d="M94 969v94q0 7 1.5 11.5t7 8.5t16.5 4h807q22 0 22 -17q0 -6 -2 -13l-4 -90q-8 -23 -33 -23h-317v-919q0 -25 -25 -25h-118q-25 0 -25 25v919h-305q-25 0 -25 25zM94 1223v94q0 7 1.5 11.5t7 8.5t16.5 4h807q22 0 22 -17q0 -6 -2 -13l-4 -90q-8 -23 -33 -23h-790
q-25 0 -25 25z" />
    <glyph glyph-name="m" unicode="m" horiz-adv-x="1214" 
d="M141 737v185q0 30 31 30h870q12 0 18.5 -7t8.5 -19t2 -22t-1 -22t-1 -14l-4 -129q0 -32 -43 -32h-299v-666q0 -41 -41 -41h-197q-41 0 -41 41v666h-272q-31 0 -31 30zM141 1126v185q0 30 31 30h870q12 0 18.5 -7t8.5 -19t2 -22t-1 -22t-1 -14l-4 -129q0 -32 -43 -32h-850
q-31 0 -31 30z" />
    <glyph glyph-name="n" unicode="n" horiz-adv-x="1462" 
d="M100 985v176h1262v-176h-533v-985h-196v985h-533zM100 1313v176h1262v-176h-1262z" />
    <glyph glyph-name="o" unicode="o" horiz-adv-x="1597" 
d="M141 731v289h1315v-289h-465v-731h-385v731h-465zM141 1200v289h1315v-289h-1315z" />
    <glyph glyph-name="p" unicode="p" horiz-adv-x="1345" 
d="M104 854l17 317h1108l14 -317h-39q-9 83 -28 119q-31 60 -83 87t-137 27h-190v-851q0 -126 27 -156q40 -43 116 -43h47v-37h-573v37h47q87 0 123 51q20 33 20 148v851h-161q-98 0 -136 -14q-122 -46 -133 -219h-39zM121 1264v92h1108v-92h-1108z" />
    <glyph glyph-name="q" unicode="q" horiz-adv-x="1452" 
d="M117 702v367h1218v-367h-37q-31 131 -69 183q-39 54 -109 88q-38 18 -133 18h-100v-760q0 -101 10 -131q13 -27 48 -45t89 -18h45v-37h-708v37h45q58 0 94 20q26 14 41 49q10 23 10 125v760h-96q-138 0 -201 -57q-87 -84 -108 -232h-39zM117 1223v133h1218v-133h-1218z
" />
    <glyph glyph-name="uni00A0" unicode="&#xa0;" 
 />
    <glyph glyph-name="uni2000" unicode="&#x2000;" horiz-adv-x="744" 
 />
    <glyph glyph-name="uni2001" unicode="&#x2001;" horiz-adv-x="1489" 
 />
    <glyph glyph-name="uni2002" unicode="&#x2002;" horiz-adv-x="744" 
 />
    <glyph glyph-name="uni2003" unicode="&#x2003;" horiz-adv-x="1489" 
 />
    <glyph glyph-name="uni2004" unicode="&#x2004;" horiz-adv-x="496" 
 />
    <glyph glyph-name="uni2005" unicode="&#x2005;" horiz-adv-x="372" 
 />
    <glyph glyph-name="uni2006" unicode="&#x2006;" horiz-adv-x="248" 
 />
    <glyph glyph-name="uni2007" unicode="&#x2007;" horiz-adv-x="248" 
 />
    <glyph glyph-name="uni2008" unicode="&#x2008;" horiz-adv-x="186" 
 />
    <glyph glyph-name="uni2009" unicode="&#x2009;" horiz-adv-x="297" 
 />
    <glyph glyph-name="uni200A" unicode="&#x200a;" horiz-adv-x="82" 
 />
    <glyph glyph-name="uni202F" unicode="&#x202f;" horiz-adv-x="297" 
 />
    <glyph glyph-name="uni205F" unicode="&#x205f;" horiz-adv-x="372" 
 />
    <glyph glyph-name="uni25FC" unicode="&#x25fc;" 
d="M0 0z" />
  </font>
</defs>
</svg>
