<svg width="15" height="15" viewBox="0 0 15 15" version="1.1" xmlns="http://www.w3.org/2000/svg"><title>icon_phone</title><g id="clean" stroke="none" stroke-width="1" fill="none" fill-rule="evenodd"><g id="contacts_map" transform="translate(-1113 -733)" fill="#A7B0B4"><g id="content" transform="translate(-405)"><g id="map" transform="translate(0 602)"><g id="info" transform="translate(1137 31)"><g id="phones" transform="translate(381 96)"><path d="M14.49 14.849c-.63-.635-1.258-1.26-1.868-1.865-.332-.328-.719-.501-1.124-.501-.406 0-.793.173-1.121.498l-.084.084a77.46 77.46 0 0 0-1.007 1.01l-.2-.103c-.153-.074-.298-.145-.425-.226-.997-.625-1.914-1.458-2.8-2.552-.43-.53-.73-1-.941-1.477.294-.285.582-.576.864-.86L6 8.638c.691-.693.688-1.592-.003-2.288-.21-.214-.427-.428-.635-.635l-.278-.279-.295-.294a42.82 42.82 0 0 0-.65-.647C3.808 4.17 3.418 4 3.015 4c-.403 0-.793.17-1.121.496-.158.157-.32.315-.471.47-.223.226-.455.459-.688.682a2.307 2.307 0 0 0-.721 1.548c-.071.97.198 1.846.44 2.503.55 1.483 1.393 2.889 2.576 4.298a16.048 16.048 0 0 0 5.275 4.129c1.115.541 2.072.817 3.004.87.068.003.136.006.201.006.787 0 1.434-.279 1.923-.824.21-.235.437-.455.675-.687.121-.118.245-.239.369-.363.694-.697.697-1.589.012-2.28zm-.601 1.69c-.118.119-.239.236-.357.354a14.55 14.55 0 0 0-.715.73c-.362.407-.82.577-1.456.543-.82-.047-1.672-.294-2.685-.787a15.212 15.212 0 0 1-5.001-3.911C2.553 12.133 1.758 10.81 1.24 9.417.921 8.562.804 7.899.85 7.27c.031-.405.183-.737.465-1.003.238-.238.473-.477.703-.706l.461-.465c.118-.117.307-.257.536-.257.23 0 .418.14.539.257.213.21.433.43.64.641.1.1.196.199.295.295l.279.278.632.632c.371.375.374.737.003 1.109-.072.074-.146.145-.217.22-.3.303-.613.62-.926.92a.65.65 0 0 0-.155.768c.242.579.592 1.142 1.1 1.768.944 1.161 1.929 2.056 3.004 2.732.167.105.337.189.501.27.1.046.19.092.28.142.11.061.222.09.334.09.176 0 .34-.078.486-.227.35-.362.715-.721 1.065-1.071l.084-.084c.117-.118.306-.257.532-.257.227 0 .415.14.536.257.607.604 1.236 1.23 1.862 1.861.362.357.359.737 0 1.1z" id="icon_phone"/></g></g></g></g></g></g></svg>