<svg width="14" height="11" viewBox="0 0 14 11" version="1.1" xmlns="http://www.w3.org/2000/svg"><title>icon_mail</title><g id="clean" stroke="none" stroke-width="1" fill="none" fill-rule="evenodd"><g id="contacts_map" transform="translate(-1053 -843)" fill="#A7B0B4"><g id="content" transform="translate(-405)"><g id="map" transform="translate(0 602)"><g id="info" transform="translate(1137 31)"><g id="mail" transform="translate(321 204)"><path d="M12.922 6.01H1.078A1.08 1.08 0 0 0 0 7.087v8.329a1.08 1.08 0 0 0 1.078 1.076h11.844A1.08 1.08 0 0 0 14 15.416v-8.33a1.08 1.08 0 0 0-1.078-1.076zm-.157.796l-5.691 4.861-5.692-4.86h11.383zm.438 8.61c0 .153-.127.28-.281.28H1.078a.282.282 0 0 1-.28-.28v-8.06l6.016 5.137.012.009.012.009c.008.006.014.011.023.014l.009.006.035.018c.003 0 .006.003.01.003.008.003.017.009.029.012l.012.003c.009.003.017.006.026.006l.012.003c.009.003.02.003.03.005h.008l.039.003c.012 0 .026 0 .038-.003h.01c.008 0 .02-.002.029-.005l.011-.003a.086.086 0 0 1 .027-.006l.012-.003c.009-.003.018-.006.03-.012.002 0 .005-.003.008-.003l.036-.018.009-.006.023-.014c.003-.003.01-.006.012-.01l.012-.008 5.875-5.011v7.934z" id="icon_mail"/></g></g></g></g></g></g></svg>