<svg width="127" height="40" viewBox="0 0 127 40" version="1.1" xmlns="http://www.w3.org/2000/svg" xmlns:xlink="http://www.w3.org/1999/xlink"><defs><path d="M18.278.137h6.657v13.067h-6.657V.137zm-18.23 0h6.658v13.067H.049V.137zm0 13.067h24.887v5.767H.05v-5.767zm0 5.767h6.658v13.065H.049V18.97zm18.23 0h6.657v13.065h-6.657V18.97z" id="path-1"/><linearGradient x1="51.543%" y1="100.204%" x2="49.92%" y2=".143%" id="linearGradient-3"><stop stop-color="#009BDF" offset="0%"/><stop stop-color="#24407E" offset="100%"/></linearGradient><path id="path-4" d="M26.874.137L15.768 14.47l13.206 17.567h-8.276L11.466 18.75l-4.41 5.015v8.27H.4V.137h6.658v14.585L18.758.137h8.116z"/><path d="M23.066 25.468a10.854 10.854 0 0 1-5.981 1.785 10.676 10.676 0 0 1-7.6-3.128c-2.041-2.02-3.158-4.657-3.158-7.516s1.115-5.545 3.159-7.568a10.676 10.676 0 0 1 7.599-3.127c2.13 0 4.217.618 5.983 1.785l4.19-4.103A16.62 16.62 0 0 0 17.085.147C7.917.147.498 7.55.498 16.61c0 9.04 7.45 16.41 16.587 16.41 3.713 0 7.236-1.203 10.171-3.405l-4.19-4.146z" id="path-6"/></defs><g id="Symbols" stroke="none" stroke-width="1" fill="none" fill-rule="evenodd"><g id="header" transform="translate(-120 -19)"><g id="logo" transform="translate(120 19)"><g id="rectangle" transform="translate(0 1)"><path d="M.075.15h32.08v3.1c-2.19-.66-4.796-.98-7.637-.195-5.554 1.532-10.207 3.187-15.455.131v7.045c5.248 2.987 9.9 1.333 15.455-.2 2.841-.783 5.448-.464 7.637.194v1.846c-2.19-.662-4.796-.98-7.637-.196-5.554 1.53-10.207 3.186-15.455.13v7.047c5.248 2.984 9.9 1.33 15.455-.2 2.841-.783 5.448-.466 7.637.194v13.008H.075V.15z" id="Fill-24" fill="#009BDF"/><path d="M.075.15h32.08v3.1c-2.19-.66-4.796-.98-7.637-.195-5.554 1.532-10.207 3.187-15.455.131l-.009-.003c-.008-.004.005 0-.004-.004C5.375 1.632 2.547.577.075.244V.148.15z" id="Fill-25" fill="#24407E"/><path d="M9.06 3.186v1.68h.003v5.365c5.248 2.987 9.9 1.333 15.455-.2 2.841-.783 5.448-.464 7.637.194v1.846c-2.19-.662-4.796-.98-7.637-.196-5.554 1.53-10.207 3.186-15.455.13v2.072H.075V.244c2.472.335 5.3 1.39 8.975 2.937.009.002-.004-.002.004.002l.007.003z" id="Fill-26" fill="#1B4D99"/><path d="M32.155 20.891v7.614a14.452 14.452 0 0 0-2.34-.216c-4.793 0-9.585 2.564-14.378 2.564-4.403.357-10.703-3.471-15.362-4.816v-8.54c4.036.941 10.266 4.559 13.8 4.962.371.048.772.076 1.214.082h.078l.014.002h.168l.014-.002h.228l.038-.002h.08l.04-.002c1.577-.036 3.013-.31 4.382-.656h.002l.067-.017.034-.007.032-.008.067-.016.006-.002.06-.014.042-.012.025-.006.066-.016.015-.004.052-.012h.002l.064-.018.069-.016.02-.006.047-.012.058-.014.008-.002.067-.018.03-.008.036-.01.068-.016.067-.018.038-.01.029-.008.068-.018.008-.002.059-.016.046-.011.089-.024.018-.005.117-.032.068-.018.027-.007.04-.01.069-.018.068-.02.034-.008.033-.01.068-.018.004-.002.065-.018.042-.01.024-.008.069-.018.014-.004.054-.016.053-.014.016-.004.068-.02.022-.006.047-.012.06-.018.009-.002.068-.02.03-.008.039-.01.07-.02.069-.018.038-.011.03-.009.069-.02.01-.002.06-.017.047-.012.022-.006.068-.02.018-.006.053-.014.056-.016.013-.004.07-.018.026-.008.045-.012.064-.018.004-.002.071-.02.034-.01.036-.01.069-.018.006-.002.065-.018.044-.014.026-.006.07-.02.013-.004.058-.016.053-.013.018-.007.07-.02.022-.006.049-.013.062-.017.009-.001.07-.02.032-.01.038-.01.073-.02.004-.003h.004l.006-.001h.004l.004-.002.007-.002.003-.002h.004l.004-.002h.007l.007-.004h.007l.004-.002h.004l.006-.002.004-.002h.004l.006-.002h.004v-.002h.004l.004-.002h.006l.004-.002h.004l.006-.002h.004l.004-.002.006-.002h.004l.008-.002.006-.002.008-.002.006-.002h.005l.01-.002.003-.002h.005l.006-.002h.004l.004-.002.01-.002.004-.002h.006l.004-.002h.004l.004-.002.006-.002h.004l.004-.002h.006l.004-.002h.004l.006-.002h.004l.004-.002.01-.002.004-.002h.004c.894-.198 1.793-.34 2.726-.375h.002c.077-.004.153-.006.232-.006h.006l.026-.002h.232l.022.002h.105l.026.002h.077l.02.002h.057l.02.002h.03l.026.002h.024l.027.002h.024l.02.002h.03l.026.002h.019l.006.002h.026l.024.002h.018l.009.002h.024l.026.002.016.002h.008l.024.002h.026l.016.002h.009l.026.002.024.002h.016l.008.002.026.002.025.002h.016l.008.002h.002l.064.004.008.002.027.002.024.002.075.006.014.002.058.006.014.002.06.006h.015l.034.004.024.002.014.002.03.004.01.002h.008l.01.002c.18.02.364.045.547.073l.034.004.034.007.037.005.01.002.06.01.242.042.035.006.036.008.034.006.015.002.02.004.034.008.014.002.02.004.034.006.016.004.018.004.035.008.016.002.018.004.033.008.018.004.016.002.034.008.018.004.016.004.034.006.018.004.015.004.034.008.035.006.034.008.02.006.012.002.034.008.02.006.012.002.035.008.022.006.01.002.034.008.023.006.01.002.034.008.032.008.034.01.065.016.026.006.04.01.026.008.007.002.032.007.028.009.006.002.032.008.027.007h.006l.032.01.028.008h.004l.032.01.029.009h.004l.032.01.028.008.004.002.063.017h.002l.032.01.03.008h.002l.03.01.065.02.032.008.002-.002z" id="Fill-27" fill="#0079C0"/><path d="M9.063 12.049v7.003c5.248 2.984 9.9 1.33 15.455-.2 2.841-.783 5.448-.466 7.637.194v1.845a15.884 15.884 0 0 0-2.145-.493 16.75 16.75 0 0 0-.601-.08h-.004l-.012-.001a13.308 13.308 0 0 0-1.61-.082c-1.02.018-1.999.167-2.966.383-.1.024-.2.05-.299.077-1.52.42-2.97.847-4.385 1.186-1.472.372-3.022.66-4.744.66-.562.006-1.06-.024-1.514-.082-4.135-.473-9.093-3.866-13.8-4.963v-8.91c.4.096.828.208 1.276.34 2.447.723 5.463 2.05 7.641 3.049l.07.03v.044z" id="Fill-29" fill="#0061AB"/><path d="M.075 8.582V7.22c3.145 1.45 6.784 3.808 8.988 4.785C5.397 10.453 2.534 9.16.075 8.582zm9.004 3.433l-.013-.008.013.006v.002z" id="Fill-30" fill="#25386E"/><path d="M.075 17.496v-1.37c3.153 1.45 6.701 3.886 8.91 4.867-3.679-1.558-6.443-2.92-8.91-3.497" id="Fill-31" fill="#084D8B"/><path d="M.075.15H3.54c1.946 1.014 3.922 2.2 5.523 3.036C5.375 1.634 2.553.58.075.244V.15z" id="Fill-32" fill="#332C6A"/><path d="M.075 26.037v-1.132c2.87 1.324 6.139 3.326 8.36 4.408a61.728 61.728 0 0 1-1.114-.445c-.484-.203-.954-.397-1.408-.584C3.86 27.42 1.85 26.55.075 26.037" id="Fill-28" fill="#065F9D"/></g><g id="Group-35" transform="translate(39.226 1.021)"><mask id="mask-2" fill="#fff"><use xlink:href="#path-1"/></mask><path id="Fill-39" fill="url(#linearGradient-3)" mask="url(#mask-2)" d="M-2.58-1.09h27.354v33.192H-2.58z"/></g><g id="Group-38" transform="translate(98.065 1.021)"><mask id="mask-5" fill="#fff"><use xlink:href="#path-4"/></mask><path id="Fill-36" fill="url(#linearGradient-3)" mask="url(#mask-5)" d="M0-.068h29.42v32.17H0z"/></g><g id="Group-41" transform="translate(67.097)"><mask id="mask-7" fill="#fff"><use xlink:href="#path-6"/></mask><path id="Fill-39" fill="url(#linearGradient-3)" mask="url(#mask-7)" d="M0-.068h27.355v33.191H0z"/></g></g></g></g></svg>