<svg xmlns="http://www.w3.org/2000/svg" xmlns:xlink="http://www.w3.org/1999/xlink" width="127" height="40" version="1.1" style=""><rect id="backgroundrect" width="100%" height="100%" x="0" y="0" fill="none" stroke="none"/><defs><path d="M18.278.137h6.657v13.067h-6.657V.137zm-18.23 0h6.658v13.067H.049V.137zm0 13.067h24.887v5.767H.05v-5.767zm0 5.767h6.658v13.065H.049V18.97zm18.23 0h6.657v13.065h-6.657V18.97z" id="path-1"/><linearGradient x1="51.543%" y1="100.204%" x2="49.92%" y2=".143%" id="linearGradient-3"><stop stop-color="#009BDF" offset="0%"/><stop stop-color="#24407E" offset="100%"/></linearGradient><path id="path-4" d="M26.874.137L15.768 14.47l13.206 17.567h-8.276L11.466 18.75l-4.41 5.015v8.27H.4V.137h6.658v14.585L18.758.137h8.116z"/><path d="M23.066 25.468a10.854 10.854 0 0 1-5.981 1.785 10.676 10.676 0 0 1-7.6-3.128c-2.041-2.02-3.158-4.657-3.158-7.516s1.115-5.545 3.159-7.568a10.676 10.676 0 0 1 7.599-3.127c2.13 0 4.217.618 5.983 1.785l4.19-4.103A16.62 16.62 0 0 0 17.085.147C7.917.147.498 7.55.498 16.61c0 9.04 7.45 16.41 16.587 16.41 3.713 0 7.236-1.203 10.171-3.405l-4.19-4.146z" id="path-6"/></defs><g class="currentLayer" style=""><title>Layer 1</title><g id="Symbols" stroke="none" stroke-width="1" fill="#ffffff" fill-rule="evenodd" class="" fill-opacity="1"><g id="header" fill="#ffffff" fill-opacity="1"><g id="logo" fill="#ffffff" fill-opacity="1"><g id="rectangle" fill="#ffffff" fill-opacity="1"><path d="M0.07500000000000286,1.1499999999999986 h32.08 v3.1 c-2.19,-0.6600000000000005 -4.796,-0.98 -7.6370000000000005,-0.1950000000000001 c-5.554,1.532 -10.207,3.187 -15.455,0.131 v7.045 c5.248,2.987 9.9,1.3330000000000002 15.455,-0.2 c2.841,-0.783 5.448,-0.464 7.6370000000000005,0.1940000000000001 v1.846 c-2.19,-0.6620000000000005 -4.796,-0.98 -7.6370000000000005,-0.1960000000000001 c-5.554,1.53 -10.207,3.186 -15.455,0.13 v7.047 c5.248,2.984 9.9,1.33 15.455,-0.2 c2.841,-0.783 5.448,-0.466 7.6370000000000005,0.1940000000000001 v13.008 H0.07500000000000286 V1.1499999999999986 z" id="Fill-24" fill="#ffffff" fill-opacity="1"/><path d="M0.07500000000000286,1.1499999999999986 h32.08 v3.1 c-2.19,-0.6600000000000005 -4.796,-0.98 -7.6370000000000005,-0.1950000000000001 c-5.554,1.532 -10.207,3.187 -15.455,0.131 l-0.009000000000000008,-0.003000000000000003 c-0.008000000000000005,-0.004000000000000003 0.005000000000000003,0 -0.004000000000000003,-0.004000000000000003 C5.375,2.6320000000000014 2.546999999999997,1.5769999999999982 0.07500000000000286,1.2439999999999998 V1.1479999999999997 V1.1499999999999986 z" id="Fill-25" fill="#ffffff" fill-opacity="1"/><path d="M9.060000000000002,4.186 v1.6800000000000006 h0.003000000000000003 v5.365 c5.248,2.987 9.9,1.3330000000000002 15.455,-0.2 c2.841,-0.783 5.448,-0.464 7.6370000000000005,0.1940000000000001 v1.846 c-2.19,-0.6620000000000005 -4.796,-0.98 -7.6370000000000005,-0.1960000000000001 c-5.554,1.53 -10.207,3.186 -15.455,0.13 v2.072 H0.07500000000000286 V1.2439999999999998 c2.472,0.3350000000000003 5.3,1.3900000000000001 8.975,2.9370000000000003 c0.009000000000000008,0.0020000000000000013 -0.004000000000000003,-0.0020000000000000013 0.004000000000000003,0.0020000000000000013 l0.007000000000000006,0.003000000000000003 z" id="Fill-26" fill="#ffffff" fill-opacity="1"/><path d="M32.155,21.891000000000002 v7.614 a14.452,14.452 0 0 0 -2.34,-0.21600000000000008 c-4.793,0 -9.585,2.564 -14.378,2.564 c-4.4030000000000005,0.35700000000000015 -10.703,-3.471 -15.362,-4.816 v-8.54 c4.036,0.9410000000000003 10.266,4.559 13.8,4.962 c0.37100000000000016,0.04800000000000002 0.772,0.07600000000000004 1.214,0.08200000000000005 h0.07800000000000004 l0.014000000000000005,0.0020000000000000013 h0.16800000000000012 l0.014000000000000005,-0.0020000000000000013 h0.2280000000000001 l0.03800000000000001,-0.0020000000000000013 h0.08000000000000004 l0.04000000000000002,-0.0020000000000000013 c1.577,-0.03600000000000001 3.013,-0.31000000000000016 4.382,-0.6560000000000004 h0.0020000000000000013 l0.06700000000000005,-0.01700000000000001 l0.03400000000000002,-0.007000000000000006 l0.03200000000000002,-0.008000000000000005 l0.06700000000000005,-0.01600000000000001 l0.006000000000000006,-0.0020000000000000013 l0.06000000000000003,-0.014000000000000005 l0.04200000000000002,-0.012000000000000005 l0.025000000000000015,-0.006000000000000006 l0.06600000000000004,-0.01600000000000001 l0.015000000000000008,-0.004000000000000003 l0.05200000000000003,-0.012000000000000005 h0.0020000000000000013 l0.06400000000000004,-0.01800000000000001 l0.06900000000000005,-0.01600000000000001 l0.02000000000000001,-0.006000000000000006 l0.04700000000000002,-0.012000000000000005 l0.05800000000000003,-0.014000000000000005 l0.008000000000000005,-0.0020000000000000013 l0.06700000000000005,-0.01800000000000001 l0.03000000000000002,-0.008000000000000005 l0.03600000000000001,-0.010000000000000005 l0.06800000000000005,-0.01600000000000001 l0.06700000000000005,-0.01800000000000001 l0.03800000000000001,-0.010000000000000005 l0.029000000000000015,-0.008000000000000005 l0.06800000000000005,-0.01800000000000001 l0.008000000000000005,-0.0020000000000000013 l0.05900000000000003,-0.01600000000000001 l0.046000000000000034,-0.011000000000000008 l0.08900000000000007,-0.02400000000000001 l0.01800000000000001,-0.005000000000000003 l0.11700000000000005,-0.03200000000000002 l0.06800000000000005,-0.01800000000000001 l0.02700000000000002,-0.007000000000000006 l0.04000000000000002,-0.010000000000000005 l0.06900000000000005,-0.01800000000000001 l0.06800000000000005,-0.02000000000000001 l0.03400000000000002,-0.008000000000000005 l0.03300000000000002,-0.010000000000000005 l0.06800000000000005,-0.01800000000000001 l0.004000000000000003,-0.0020000000000000013 l0.06500000000000004,-0.01800000000000001 l0.04200000000000002,-0.010000000000000005 l0.02400000000000001,-0.008000000000000005 l0.06900000000000005,-0.01800000000000001 l0.014000000000000005,-0.004000000000000003 l0.054000000000000034,-0.01600000000000001 l0.05300000000000003,-0.014000000000000005 l0.01600000000000001,-0.004000000000000003 l0.06800000000000005,-0.02000000000000001 l0.02200000000000002,-0.006000000000000006 l0.04700000000000002,-0.012000000000000005 l0.06000000000000003,-0.01800000000000001 l0.009000000000000008,-0.0020000000000000013 l0.06800000000000005,-0.02000000000000001 l0.03000000000000002,-0.008000000000000005 l0.03900000000000002,-0.010000000000000005 l0.07,-0.02000000000000001 l0.06900000000000005,-0.01800000000000001 l0.03800000000000001,-0.011000000000000008 l0.03000000000000002,-0.009000000000000008 l0.06900000000000005,-0.02000000000000001 l0.010000000000000005,-0.0020000000000000013 l0.06000000000000003,-0.01700000000000001 l0.04700000000000002,-0.012000000000000005 l0.02200000000000002,-0.006000000000000006 l0.06800000000000005,-0.02000000000000001 l0.01800000000000001,-0.006000000000000006 l0.05300000000000003,-0.014000000000000005 l0.05600000000000002,-0.01600000000000001 l0.013000000000000008,-0.004000000000000003 l0.07,-0.01800000000000001 l0.02600000000000002,-0.008000000000000005 l0.04500000000000003,-0.012000000000000005 l0.06400000000000004,-0.01800000000000001 l0.004000000000000003,-0.0020000000000000013 l0.07100000000000002,-0.02000000000000001 l0.03400000000000002,-0.010000000000000005 l0.03600000000000001,-0.010000000000000005 l0.06900000000000005,-0.01800000000000001 l0.006000000000000006,-0.0020000000000000013 l0.06500000000000004,-0.01800000000000001 l0.04400000000000003,-0.014000000000000005 l0.02600000000000002,-0.006000000000000006 l0.07,-0.02000000000000001 l0.013000000000000008,-0.004000000000000003 l0.05800000000000003,-0.01600000000000001 l0.05300000000000003,-0.013000000000000008 l0.01800000000000001,-0.007000000000000006 l0.07,-0.02000000000000001 l0.02200000000000002,-0.006000000000000006 l0.04900000000000002,-0.013000000000000008 l0.062000000000000034,-0.01700000000000001 l0.009000000000000008,-0.0010000000000000007 l0.07,-0.02000000000000001 l0.03200000000000002,-0.010000000000000005 l0.03800000000000001,-0.010000000000000005 l0.07300000000000002,-0.02000000000000001 l0.004000000000000003,-0.003000000000000003 h0.004000000000000003 l0.006000000000000006,-0.0010000000000000007 h0.004000000000000003 l0.004000000000000003,-0.0020000000000000013 l0.007000000000000006,-0.0020000000000000013 l0.003000000000000003,-0.0020000000000000013 h0.004000000000000003 l0.004000000000000003,-0.0020000000000000013 h0.007000000000000006 l0.007000000000000006,-0.004000000000000003 h0.007000000000000006 l0.004000000000000003,-0.0020000000000000013 h0.004000000000000003 l0.006000000000000006,-0.0020000000000000013 l0.004000000000000003,-0.0020000000000000013 h0.004000000000000003 l0.006000000000000006,-0.0020000000000000013 h0.004000000000000003 v-0.0020000000000000013 h0.004000000000000003 l0.004000000000000003,-0.0020000000000000013 h0.006000000000000006 l0.004000000000000003,-0.0020000000000000013 h0.004000000000000003 l0.006000000000000006,-0.0020000000000000013 h0.004000000000000003 l0.004000000000000003,-0.0020000000000000013 l0.006000000000000006,-0.0020000000000000013 h0.004000000000000003 l0.008000000000000005,-0.0020000000000000013 l0.006000000000000006,-0.0020000000000000013 l0.008000000000000005,-0.0020000000000000013 l0.006000000000000006,-0.0020000000000000013 h0.005000000000000003 l0.010000000000000005,-0.0020000000000000013 l0.003000000000000003,-0.0020000000000000013 h0.005000000000000003 l0.006000000000000006,-0.0020000000000000013 h0.004000000000000003 l0.004000000000000003,-0.0020000000000000013 l0.010000000000000005,-0.0020000000000000013 l0.004000000000000003,-0.0020000000000000013 h0.006000000000000006 l0.004000000000000003,-0.0020000000000000013 h0.004000000000000003 l0.004000000000000003,-0.0020000000000000013 l0.006000000000000006,-0.0020000000000000013 h0.004000000000000003 l0.004000000000000003,-0.0020000000000000013 h0.006000000000000006 l0.004000000000000003,-0.0020000000000000013 h0.004000000000000003 l0.006000000000000006,-0.0020000000000000013 h0.004000000000000003 l0.004000000000000003,-0.0020000000000000013 l0.010000000000000005,-0.0020000000000000013 l0.004000000000000003,-0.0020000000000000013 h0.004000000000000003 c0.8940000000000003,-0.1980000000000001 1.7930000000000001,-0.3400000000000003 2.726,-0.37500000000000017 h0.0020000000000000013 c0.07700000000000004,-0.004000000000000003 0.15300000000000008,-0.006000000000000006 0.232,-0.006000000000000006 h0.006000000000000006 l0.02600000000000002,-0.0020000000000000013 h0.232 l0.02200000000000002,0.0020000000000000013 h0.10500000000000002 l0.02600000000000002,0.0020000000000000013 h0.07700000000000004 l0.02000000000000001,0.0020000000000000013 h0.05700000000000002 l0.02000000000000001,0.0020000000000000013 h0.03000000000000002 l0.02600000000000002,0.0020000000000000013 h0.02400000000000001 l0.02700000000000002,0.0020000000000000013 h0.02400000000000001 l0.02000000000000001,0.0020000000000000013 h0.03000000000000002 l0.02600000000000002,0.0020000000000000013 h0.01900000000000001 l0.006000000000000006,0.0020000000000000013 h0.02600000000000002 l0.02400000000000001,0.0020000000000000013 h0.01800000000000001 l0.009000000000000008,0.0020000000000000013 h0.02400000000000001 l0.02600000000000002,0.0020000000000000013 l0.01600000000000001,0.0020000000000000013 h0.008000000000000005 l0.02400000000000001,0.0020000000000000013 h0.02600000000000002 l0.01600000000000001,0.0020000000000000013 h0.009000000000000008 l0.02600000000000002,0.0020000000000000013 l0.02400000000000001,0.0020000000000000013 h0.01600000000000001 l0.008000000000000005,0.0020000000000000013 l0.02600000000000002,0.0020000000000000013 l0.025000000000000015,0.0020000000000000013 h0.01600000000000001 l0.008000000000000005,0.0020000000000000013 h0.0020000000000000013 l0.06400000000000004,0.004000000000000003 l0.008000000000000005,0.0020000000000000013 l0.02700000000000002,0.0020000000000000013 l0.02400000000000001,0.0020000000000000013 l0.07500000000000002,0.006000000000000006 l0.014000000000000005,0.0020000000000000013 l0.05800000000000003,0.006000000000000006 l0.014000000000000005,0.0020000000000000013 l0.06000000000000003,0.006000000000000006 h0.015000000000000008 l0.03400000000000002,0.004000000000000003 l0.02400000000000001,0.0020000000000000013 l0.014000000000000005,0.0020000000000000013 l0.03000000000000002,0.004000000000000003 l0.010000000000000005,0.0020000000000000013 h0.008000000000000005 l0.010000000000000005,0.0020000000000000013 c0.18000000000000008,0.02000000000000001 0.36400000000000016,0.04500000000000003 0.547,0.07300000000000002 l0.03400000000000002,0.004000000000000003 l0.03400000000000002,0.007000000000000006 l0.03700000000000001,0.005000000000000003 l0.010000000000000005,0.0020000000000000013 l0.06000000000000003,0.010000000000000005 l0.24200000000000008,0.04200000000000002 l0.035,0.006000000000000006 l0.03600000000000001,0.008000000000000005 l0.03400000000000002,0.006000000000000006 l0.015000000000000008,0.0020000000000000013 l0.02000000000000001,0.004000000000000003 l0.03400000000000002,0.008000000000000005 l0.014000000000000005,0.0020000000000000013 l0.02000000000000001,0.004000000000000003 l0.03400000000000002,0.006000000000000006 l0.01600000000000001,0.004000000000000003 l0.01800000000000001,0.004000000000000003 l0.035,0.008000000000000005 l0.01600000000000001,0.0020000000000000013 l0.01800000000000001,0.004000000000000003 l0.03300000000000002,0.008000000000000005 l0.01800000000000001,0.004000000000000003 l0.01600000000000001,0.0020000000000000013 l0.03400000000000002,0.008000000000000005 l0.01800000000000001,0.004000000000000003 l0.01600000000000001,0.004000000000000003 l0.03400000000000002,0.006000000000000006 l0.01800000000000001,0.004000000000000003 l0.015000000000000008,0.004000000000000003 l0.03400000000000002,0.008000000000000005 l0.035,0.006000000000000006 l0.03400000000000002,0.008000000000000005 l0.02000000000000001,0.006000000000000006 l0.012000000000000005,0.0020000000000000013 l0.03400000000000002,0.008000000000000005 l0.02000000000000001,0.006000000000000006 l0.012000000000000005,0.0020000000000000013 l0.035,0.008000000000000005 l0.02200000000000002,0.006000000000000006 l0.010000000000000005,0.0020000000000000013 l0.03400000000000002,0.008000000000000005 l0.02300000000000002,0.006000000000000006 l0.010000000000000005,0.0020000000000000013 l0.03400000000000002,0.008000000000000005 l0.03200000000000002,0.008000000000000005 l0.03400000000000002,0.010000000000000005 l0.06500000000000004,0.01600000000000001 l0.02600000000000002,0.006000000000000006 l0.04000000000000002,0.010000000000000005 l0.02600000000000002,0.008000000000000005 l0.007000000000000006,0.0020000000000000013 l0.03200000000000002,0.007000000000000006 l0.02800000000000001,0.009000000000000008 l0.006000000000000006,0.0020000000000000013 l0.03200000000000002,0.008000000000000005 l0.02700000000000002,0.007000000000000006 h0.006000000000000006 l0.03200000000000002,0.010000000000000005 l0.02800000000000001,0.008000000000000005 h0.004000000000000003 l0.03200000000000002,0.010000000000000005 l0.029000000000000015,0.009000000000000008 h0.004000000000000003 l0.03200000000000002,0.010000000000000005 l0.02800000000000001,0.008000000000000005 l0.004000000000000003,0.0020000000000000013 l0.06300000000000004,0.01700000000000001 h0.0020000000000000013 l0.03200000000000002,0.010000000000000005 l0.03000000000000002,0.008000000000000005 h0.0020000000000000013 l0.03000000000000002,0.010000000000000005 l0.06500000000000004,0.02000000000000001 l0.03200000000000002,0.008000000000000005 l0.0020000000000000013,-0.0020000000000000013 z" id="Fill-27" fill="#ffffff" fill-opacity="1"/><path d="M9.063000000000002,13.049 v7.003 c5.248,2.984 9.9,1.33 15.455,-0.2 c2.841,-0.783 5.448,-0.466 7.6370000000000005,0.1940000000000001 v1.8450000000000002 a15.884,15.884 0 0 0 -2.145,-0.49300000000000016 a16.75,16.75 0 0 0 -0.6010000000000003,-0.08000000000000004 h-0.004000000000000003 l-0.012000000000000005,-0.0010000000000000007 a13.308,13.308 0 0 0 -1.61,-0.08200000000000005 c-1.02,0.01800000000000001 -1.999,0.16700000000000012 -2.966,0.3830000000000002 c-0.1,0.02400000000000001 -0.2,0.05000000000000003 -0.29900000000000015,0.07700000000000004 c-1.52,0.42000000000000015 -2.9699999999999998,0.8470000000000003 -4.385,1.186 c-1.472,0.37200000000000016 -3.022,0.6600000000000005 -4.744,0.6600000000000005 c-0.562,0.006000000000000006 -1.06,-0.02400000000000001 -1.514,-0.08200000000000005 c-4.135,-0.47300000000000014 -9.093,-3.866 -13.8,-4.963 v-8.91 c0.4,0.09600000000000009 0.8280000000000003,0.20800000000000007 1.276,0.3400000000000003 c2.447,0.7230000000000003 5.463,2.05 7.641,3.049 l0.07,0.03000000000000002 v0.04400000000000003 z" id="Fill-29" fill="#ffffff" fill-opacity="1"/><path d="M0.07500000000000286,9.582 V8.219999999999999 c3.145,1.45 6.784,3.808 8.988,4.785 C5.3970000000000065,11.453 2.534000000000006,10.16 0.07500000000000286,9.582 zm9.004,3.433 l-0.013000000000000008,-0.008000000000000005 l0.013000000000000008,0.006000000000000006 v0.0020000000000000013 z" id="Fill-30" fill="#ffffff" fill-opacity="1"/><path d="M0.07500000000000286,18.496 v-1.37 c3.153,1.45 6.7010000000000005,3.886 8.91,4.867 c-3.6790000000000003,-1.558 -6.443,-2.92 -8.91,-3.497 " id="Fill-31" fill="#ffffff" fill-opacity="1"/><path d="M0.07500000000000286,1.1499999999999986 H3.5400000000000063 c1.9460000000000002,1.014 3.922,2.2 5.523,3.036 C5.375,2.6340000000000003 2.5529999999999973,1.5799999999999983 0.07500000000000286,1.2439999999999998 V1.1499999999999986 z" id="Fill-32" fill="#ffffff" fill-opacity="1"/><path d="M0.07500000000000286,27.037 v-1.1320000000000001 c2.87,1.324 6.139,3.326 8.36,4.408 a61.728,61.728 0 0 1 -1.114,-0.4450000000000002 c-0.48400000000000015,-0.203 -0.9540000000000003,-0.3970000000000003 -1.408,-0.5840000000000003 C3.8599999999999994,28.42 1.8499999999999943,27.55 0.07500000000000286,27.037 " id="Fill-28" fill="#ffffff" fill-opacity="1"/></g><g id="Group-35" fill="#ffffff" fill-opacity="1"><mask id="mask-2" fill="#fff" transform="translate(39.22600173950195,1.0210000276565552) translate(120,19) translate(-120,-19) "><use xlink:href="#path-1" id="svg_1"/></mask><path id="Fill-39" fill="#ffffff" mask="url(#mask-2)" d="M36.646001739501955,-0.06899997234344468 h27.354 v33.192 H36.646001739501955 z" fill-opacity="1"/></g><g id="Group-38" fill="#ffffff" fill-opacity="1"><mask id="mask-5" fill="#fff" transform="translate(98.06500244140625,1.0210000276565552) translate(120,19) translate(-120,-19) "><use xlink:href="#path-4" id="svg_2"/></mask><path id="Fill-36" fill="#ffffff" mask="url(#mask-5)" d="M98.06500244140625,0.9530000276565538 h29.42 v32.17 H98.06500244140625 z" fill-opacity="1"/></g><g id="Group-41" fill="#ffffff" fill-opacity="1"><mask id="mask-7" fill="#fff" transform="translate(67.09700012207031,0) translate(120,19) translate(-120,-19) "><use xlink:href="#path-6" id="svg_3"/></mask><path id="Fill-39" fill="#ffffff" mask="url(#mask-7)" d="M67.09700012207031,-0.0680000000000014 h27.355 v33.191 H67.09700012207031 z" fill-opacity="1"/></g></g></g></g></g></svg>