<svg width="36" height="36" viewBox="0 0 36 36" fill="none" xmlns="http://www.w3.org/2000/svg" >
  <style>
    .call-animation {
      animation-name: shake;
      animation-duration: 7.5s;
      animation-iteration-count: infinite;
      animation-timing-function: cubic-bezier(.36, .07, .19, .97);

      transform-origin: center;
    }

    @keyframes shake {
      0% {
        transform: rotate3d(0, 0, 0, 0deg);
      }
      1%, 7% {
        transform: rotate3d(0, 0, 1, -7deg);
      }
      2%, 8% {
        transform: rotate3d(0, 0, 1, 7deg);
      }
      3%, 5%, 7% {
        transform: rotate3d(0, 0, 1, -7deg);
      }
      4%, 6% {
        transform: rotate3d(0, 0, 1, 7deg);
      }
      10% {
        transform: rotate3d(0, 0, 0, 0deg);
      }
      20% {
        transform: rotate3d(0, 0, 0, 0deg);
      }
    }
  </style>

  <g class="call-animation">
    <path
      d="M19.5 12C20.6935 12 21.8381 12.4741 22.682 13.318C23.5259 14.1619 24 15.3065 24 16.5C24 16.8978 24.158 17.2794 24.4393 17.5607C24.7206 17.842 25.1022 18 25.5 18C25.8978 18 26.2794 17.842 26.5607 17.5607C26.842 17.2794 27 16.8978 27 16.5C27 14.5109 26.2098 12.6032 24.8033 11.1967C23.3968 9.79018 21.4891 9 19.5 9C19.1022 9 18.7206 9.15804 18.4393 9.43934C18.158 9.72064 18 10.1022 18 10.5C18 10.8978 18.158 11.2794 18.4393 11.5607C18.7206 11.842 19.1022 12 19.5 12V12Z"
      fill="#0094DF"/>
    <path
      d="M19.5 6C22.2848 6 24.9555 7.10625 26.9246 9.07538C28.8938 11.0445 30 13.7152 30 16.5C30 16.8978 30.158 17.2794 30.4393 17.5607C30.7206 17.842 31.1022 18 31.5 18C31.8978 18 32.2794 17.842 32.5607 17.5607C32.842 17.2794 33 16.8978 33 16.5C33 12.9196 31.5777 9.4858 29.0459 6.95406C26.5142 4.42232 23.0804 3 19.5 3C19.1022 3 18.7206 3.15804 18.4393 3.43934C18.158 3.72064 18 4.10218 18 4.5C18 4.89782 18.158 5.27936 18.4393 5.56066C18.7206 5.84196 19.1022 6 19.5 6V6ZM32.625 23.865C32.5425 23.6242 32.4001 23.4084 32.2111 23.2378C32.0222 23.0672 31.793 22.9475 31.545 22.89L22.545 20.835C22.3007 20.7796 22.0464 20.7863 21.8054 20.8544C21.5643 20.9225 21.3442 21.0499 21.165 21.225C20.955 21.42 20.94 21.435 19.965 23.295C16.7298 21.8042 14.1375 19.2013 12.66 15.96C14.565 15 14.58 15 14.775 14.775C14.9501 14.5958 15.0775 14.3757 15.1456 14.1346C15.2137 13.8936 15.2204 13.6393 15.165 13.395L13.11 4.5C13.0525 4.25204 12.9328 4.02281 12.7622 3.83387C12.5916 3.64493 12.3758 3.5025 12.135 3.42C11.7847 3.29488 11.423 3.20445 11.055 3.15C10.6759 3.06209 10.289 3.01185 9.9 3C8.07001 3 6.31496 3.72696 5.02096 5.02096C3.72696 6.31496 3 8.07001 3 9.9C3.00794 16.0241 5.44423 21.895 9.7746 26.2254C14.105 30.5558 19.9759 32.9921 26.1 33C27.0061 33 27.9034 32.8215 28.7405 32.4748C29.5777 32.128 30.3383 31.6198 30.979 30.979C31.6198 30.3383 32.128 29.5777 32.4748 28.7405C32.8215 27.9034 33 27.0061 33 26.1C33.0005 25.7182 32.9704 25.337 32.91 24.96C32.847 24.5874 32.7516 24.221 32.625 23.865V23.865Z"
      fill="#0094DF"
    />
  </g>

</svg>


