<svg width="65" height="65" viewBox="0 0 65 65" fill="none" xmlns="http://www.w3.org/2000/svg">
<path d="M32.5 0C14.5506 0 0 14.5506 0 32.5C0 50.4494 14.5506 65 32.5 65C50.4494 65 65 50.4494 65 32.5C65 14.5506 50.4494 0 32.5 0Z" fill="#40B3E0"/>
<path d="M48.3141 18.6951L42.509 47.9626C42.509 47.9626 41.6973 49.9923 39.4647 49.0181L26.0691 38.7481L21.1981 36.3939L12.9985 33.6334C12.9985 33.6334 11.7401 33.187 11.6182 32.2128C11.4964 31.2386 13.0391 30.7109 13.0391 30.7109L45.6346 17.9242C45.6346 17.9242 48.3138 16.7471 48.3138 18.6956" fill="white"/>
<path d="M25.0397 47.6336C25.0397 47.6336 24.6487 47.597 24.1612 46.0543C23.6745 44.5118 21.1981 36.3934 21.1981 36.3934L40.8855 23.8911C40.8855 23.8911 42.0222 23.201 41.9816 23.8911C41.9816 23.8911 42.1845 24.0129 41.5754 24.5812C40.9668 25.1497 26.1099 38.5044 26.1099 38.5044" fill="#D2E5F1"/>
<path d="M31.2053 42.6854L25.9071 47.5163C25.9071 47.5163 25.4927 47.8306 25.0397 47.6336L26.0543 38.6605" fill="#B5CFE4"/>
</svg>
