<svg width="256" height="257" viewBox="0 0 256 257" fill="none" xmlns="http://www.w3.org/2000/svg">
<g filter="url(#filter0_f)">
<path d="M6.297 251L23.452 188.406C12.904 170.09 7.282 149.284 7.34 128.014C7.34 61.362 61.588 7.172 128.24 7.172C160.58 7.172 190.95 19.749 213.728 42.584C236.563 65.419 249.14 95.789 249.082 128.072C249.082 194.723 194.833 248.914 128.182 248.914H128.124C107.897 248.914 88.017 243.814 70.34 234.192L6.297 251ZM73.354 212.284L77.005 214.487C92.422 223.644 110.099 228.454 128.124 228.512H128.182C183.532 228.512 228.622 183.479 228.622 128.072C228.622 101.237 218.19 76.026 199.238 57.015C180.286 38.005 155.016 27.573 128.182 27.573C72.774 27.573 27.683 72.606 27.683 128.013C27.683 146.966 32.957 165.454 43.042 181.451L45.418 185.276L35.276 222.311L73.354 212.284V212.284Z" fill="black" fill-opacity="0.24"/>
</g>
<path d="M11.781 244.539L28.151 184.839C18.0568 167.328 12.7468 147.47 12.754 127.258C12.754 63.723 64.498 12.037 127.974 12.037C158.826 12.037 187.732 24.057 209.482 45.807C231.232 67.558 243.196 96.521 243.196 127.315C243.196 190.849 191.452 242.535 127.975 242.535H127.918C108.628 242.535 89.682 237.67 72.854 228.512L11.781 244.54V244.539Z" fill="url(#paint0_linear)"/>
<path d="M7.603 248.717L24.545 186.9C14.128 168.813 8.575 148.264 8.633 127.258C8.633 61.434 62.208 7.916 128.033 7.916C159.971 7.916 189.963 20.336 212.459 42.888C235.01 65.44 247.431 95.433 247.374 127.315C247.374 193.139 193.799 246.657 127.974 246.657H127.918C107.98 246.649 88.3619 241.651 70.851 232.118L7.603 248.718V248.717ZM73.827 210.482L77.433 212.657C92.659 221.701 110.116 226.452 127.918 226.509H127.975C182.637 226.509 227.169 182.035 227.169 127.315C227.169 100.814 216.866 75.915 198.149 57.141C179.432 38.367 154.476 28.064 127.975 28.064C73.255 28.064 28.724 72.538 28.724 127.258C28.724 145.975 33.932 164.234 43.892 180.031L46.239 183.809L36.222 220.384L73.827 210.482V210.482Z" fill="white"/>
<path d="M98.154 77.289C95.921 72.309 93.574 72.194 91.457 72.137C89.74 72.08 87.737 72.08 85.733 72.08C83.73 72.08 80.524 72.824 77.777 75.8C75.029 78.777 67.359 85.989 67.359 100.7C67.359 115.352 78.063 129.547 79.551 131.55C81.039 133.554 100.214 164.634 130.493 176.597C155.678 186.557 160.83 184.553 166.267 184.038C171.762 183.523 183.897 176.826 186.415 169.843C188.876 162.86 188.876 156.907 188.132 155.648C187.388 154.388 185.385 153.645 182.408 152.156C179.432 150.668 164.779 143.456 162.032 142.426C159.284 141.396 157.281 140.938 155.335 143.914C153.331 146.89 147.608 153.587 145.89 155.591C144.173 157.594 142.399 157.823 139.422 156.335C136.446 154.847 126.83 151.698 115.44 141.51C106.568 133.611 100.558 123.823 98.84 120.847C97.123 117.871 98.669 116.267 100.157 114.78C101.473 113.463 103.133 111.288 104.622 109.571C106.11 107.854 106.625 106.595 107.598 104.591C108.571 102.588 108.113 100.871 107.369 99.383C106.625 97.894 100.787 83.184 98.154 77.289V77.289Z" fill="white"/>
<defs>
<filter id="filter0_f" x="0.296997" y="1.172" width="254.785" height="255.828" filterUnits="userSpaceOnUse" color-interpolation-filters="sRGB">
<feFlood flood-opacity="0" result="BackgroundImageFix"/>
<feBlend mode="normal" in="SourceGraphic" in2="BackgroundImageFix" result="shape"/>
<feGaussianBlur stdDeviation="3" result="effect1_foregroundBlur"/>
</filter>
<linearGradient id="paint0_linear" x1="127.484" y1="244.524" x2="127.484" y2="12.023" gradientUnits="userSpaceOnUse">
<stop stop-color="#20B038"/>
<stop offset="1" stop-color="#60D66A"/>
</linearGradient>
</defs>
</svg>
